<svg xmlns="http://www.w3.org/2000/svg" viewBox="0 0 2000 1001" width="2000" height="1001"><path fill="#334155" d="M0 0h2000v1001H0z"/><path fill="#1e293b" d="M1414 411.5c-2.5 2-3.5 5.5-3.5 8s1 6 3 8c.5 0 1.5.5 2.5.5h3c1 0 2 0 2.5-.5 2-1.5 3.5-4.5 3.5-7.5s-1-5.5-3-7.5c-1-1-1.5-1-2.5-1h-3c-1 0-2 0-2.5.5zm-59.5 271c-1.5 2-2.5 5-2.5 7.5s1 5.5 2.5 7.5c1 .5 2 .5 2.5.5h3c1 0 2 0 2.5-.5 2-1.5 3-4.5 3-7.5s-1-5.5-2.5-7.5c-.5-.5-1.5-.5-2.5-.5h-3c-.5 0-1.5 0-2.5.5zM1287 431c-1.5 1.5-2.5 4-2.5 6.5s.5 5 2 6.5c1 .5 2 .5 2.5.5h3c1 0 1.5 0 2-.5 2-1 3-3.5 3-6s-1-5.5-2.5-6.5c-.5-.5-1.5-.5-2.5-.5h-3c-.5 0-1.5 0-2 .5zM1000 0L702 300h596zm0 1001l298-300H702z"/></svg>
